<mxfile host="app.diagrams.net" agent="Mozilla/5.0 (Windows NT 10.0; Win64; x64) AppleWebKit/537.36 (KHTML, like Gecko) Chrome/129.0.0.0 Safari/537.36" version="24.7.17">
  <diagram name="Page-1" id="2qqocHjtE8PsubvrWxqt">
    <mxGraphModel dx="794" dy="2646" grid="1" gridSize="10" guides="1" tooltips="1" connect="1" arrows="1" fold="1" page="1" pageScale="1" pageWidth="850" pageHeight="1100" math="0" shadow="0">
      <root>
        <mxCell id="0" />
        <mxCell id="1" parent="0" />
        <mxCell id="AvBMiMWbxeBO7aB9u8ek-1" value="mulai" style="ellipse;whiteSpace=wrap;html=1;" vertex="1" parent="1">
          <mxGeometry x="100" y="-2160" width="120" height="80" as="geometry" />
        </mxCell>
        <mxCell id="AvBMiMWbxeBO7aB9u8ek-2" value="masukkan username&lt;div&gt;&amp;amp; pasword&lt;/div&gt;" style="shape=parallelogram;perimeter=parallelogramPerimeter;whiteSpace=wrap;html=1;fixedSize=1;" vertex="1" parent="1">
          <mxGeometry x="80" y="-2040" width="160" height="60" as="geometry" />
        </mxCell>
        <mxCell id="AvBMiMWbxeBO7aB9u8ek-3" value="memeriksa username&lt;div&gt;&amp;amp; pasword di sistem&lt;/div&gt;" style="rounded=0;whiteSpace=wrap;html=1;" vertex="1" parent="1">
          <mxGeometry x="95" y="-1940" width="130" height="60" as="geometry" />
        </mxCell>
        <mxCell id="AvBMiMWbxeBO7aB9u8ek-4" value="if" style="rhombus;whiteSpace=wrap;html=1;" vertex="1" parent="1">
          <mxGeometry x="120" y="-1840" width="80" height="80" as="geometry" />
        </mxCell>
        <mxCell id="AvBMiMWbxeBO7aB9u8ek-5" value="sukses" style="rounded=0;whiteSpace=wrap;html=1;" vertex="1" parent="1">
          <mxGeometry x="100" y="-1720" width="120" height="60" as="geometry" />
        </mxCell>
        <mxCell id="AvBMiMWbxeBO7aB9u8ek-6" value="error" style="rounded=0;whiteSpace=wrap;html=1;" vertex="1" parent="1">
          <mxGeometry x="270" y="-1830" width="120" height="60" as="geometry" />
        </mxCell>
        <mxCell id="AvBMiMWbxeBO7aB9u8ek-7" value="selesai" style="ellipse;whiteSpace=wrap;html=1;" vertex="1" parent="1">
          <mxGeometry x="100" y="-1520" width="120" height="80" as="geometry" />
        </mxCell>
        <mxCell id="AvBMiMWbxeBO7aB9u8ek-8" value="" style="endArrow=classic;html=1;rounded=0;exitX=0.5;exitY=1;exitDx=0;exitDy=0;entryX=0.5;entryY=0;entryDx=0;entryDy=0;" edge="1" parent="1" source="AvBMiMWbxeBO7aB9u8ek-1" target="AvBMiMWbxeBO7aB9u8ek-2">
          <mxGeometry width="50" height="50" relative="1" as="geometry">
            <mxPoint x="135" y="-2020" as="sourcePoint" />
            <mxPoint x="290" y="-2050" as="targetPoint" />
          </mxGeometry>
        </mxCell>
        <mxCell id="AvBMiMWbxeBO7aB9u8ek-9" value="" style="endArrow=classic;html=1;rounded=0;exitX=0.5;exitY=1;exitDx=0;exitDy=0;entryX=0.5;entryY=0;entryDx=0;entryDy=0;" edge="1" parent="1" source="AvBMiMWbxeBO7aB9u8ek-2" target="AvBMiMWbxeBO7aB9u8ek-3">
          <mxGeometry width="50" height="50" relative="1" as="geometry">
            <mxPoint x="380" y="-1990" as="sourcePoint" />
            <mxPoint x="430" y="-2040" as="targetPoint" />
          </mxGeometry>
        </mxCell>
        <mxCell id="AvBMiMWbxeBO7aB9u8ek-10" value="" style="endArrow=classic;html=1;rounded=0;exitX=0.5;exitY=1;exitDx=0;exitDy=0;entryX=0.5;entryY=0;entryDx=0;entryDy=0;" edge="1" parent="1" source="AvBMiMWbxeBO7aB9u8ek-3" target="AvBMiMWbxeBO7aB9u8ek-4">
          <mxGeometry width="50" height="50" relative="1" as="geometry">
            <mxPoint x="380" y="-1790" as="sourcePoint" />
            <mxPoint x="430" y="-1840" as="targetPoint" />
          </mxGeometry>
        </mxCell>
        <mxCell id="AvBMiMWbxeBO7aB9u8ek-11" value="" style="endArrow=classic;html=1;rounded=0;exitX=0.5;exitY=1;exitDx=0;exitDy=0;entryX=0.5;entryY=0;entryDx=0;entryDy=0;" edge="1" parent="1" source="AvBMiMWbxeBO7aB9u8ek-4" target="AvBMiMWbxeBO7aB9u8ek-5">
          <mxGeometry width="50" height="50" relative="1" as="geometry">
            <mxPoint x="380" y="-1790" as="sourcePoint" />
            <mxPoint x="430" y="-1840" as="targetPoint" />
          </mxGeometry>
        </mxCell>
        <mxCell id="AvBMiMWbxeBO7aB9u8ek-12" value="" style="endArrow=classic;html=1;rounded=0;exitX=1;exitY=0.5;exitDx=0;exitDy=0;entryX=0;entryY=0.5;entryDx=0;entryDy=0;" edge="1" parent="1" source="AvBMiMWbxeBO7aB9u8ek-4" target="AvBMiMWbxeBO7aB9u8ek-6">
          <mxGeometry width="50" height="50" relative="1" as="geometry">
            <mxPoint x="380" y="-1790" as="sourcePoint" />
            <mxPoint x="430" y="-1840" as="targetPoint" />
          </mxGeometry>
        </mxCell>
        <mxCell id="AvBMiMWbxeBO7aB9u8ek-13" value="" style="endArrow=classic;html=1;rounded=0;entryX=1;entryY=0.5;entryDx=0;entryDy=0;exitX=0.5;exitY=0;exitDx=0;exitDy=0;" edge="1" parent="1" source="AvBMiMWbxeBO7aB9u8ek-16" target="AvBMiMWbxeBO7aB9u8ek-2">
          <mxGeometry width="50" height="50" relative="1" as="geometry">
            <mxPoint x="500" y="-1860" as="sourcePoint" />
            <mxPoint x="425" y="-2010" as="targetPoint" />
            <Array as="points">
              <mxPoint x="525" y="-2010" />
            </Array>
          </mxGeometry>
        </mxCell>
        <mxCell id="AvBMiMWbxeBO7aB9u8ek-14" value="" style="endArrow=classic;html=1;rounded=0;exitX=0.5;exitY=1;exitDx=0;exitDy=0;entryX=0.5;entryY=0;entryDx=0;entryDy=0;" edge="1" parent="1" source="AvBMiMWbxeBO7aB9u8ek-5" target="AvBMiMWbxeBO7aB9u8ek-18">
          <mxGeometry width="50" height="50" relative="1" as="geometry">
            <mxPoint x="380" y="-1690" as="sourcePoint" />
            <mxPoint x="190" y="-1630" as="targetPoint" />
          </mxGeometry>
        </mxCell>
        <mxCell id="AvBMiMWbxeBO7aB9u8ek-16" value="username / pasword&lt;div&gt;salah&lt;/div&gt;" style="shape=parallelogram;perimeter=parallelogramPerimeter;whiteSpace=wrap;html=1;fixedSize=1;" vertex="1" parent="1">
          <mxGeometry x="440" y="-1830" width="170" height="60" as="geometry" />
        </mxCell>
        <mxCell id="AvBMiMWbxeBO7aB9u8ek-17" value="" style="endArrow=classic;html=1;rounded=0;exitX=1;exitY=0.5;exitDx=0;exitDy=0;entryX=0;entryY=0.5;entryDx=0;entryDy=0;" edge="1" parent="1" source="AvBMiMWbxeBO7aB9u8ek-6" target="AvBMiMWbxeBO7aB9u8ek-16">
          <mxGeometry width="50" height="50" relative="1" as="geometry">
            <mxPoint x="380" y="-1890" as="sourcePoint" />
            <mxPoint x="430" y="-1940" as="targetPoint" />
          </mxGeometry>
        </mxCell>
        <mxCell id="AvBMiMWbxeBO7aB9u8ek-18" value="pengguna terdaftar&lt;div&gt;di sistem&lt;/div&gt;" style="shape=parallelogram;perimeter=parallelogramPerimeter;whiteSpace=wrap;html=1;fixedSize=1;" vertex="1" parent="1">
          <mxGeometry x="85" y="-1620" width="150" height="60" as="geometry" />
        </mxCell>
        <mxCell id="AvBMiMWbxeBO7aB9u8ek-19" value="" style="endArrow=classic;html=1;rounded=0;exitX=0.5;exitY=1;exitDx=0;exitDy=0;entryX=0.5;entryY=0;entryDx=0;entryDy=0;" edge="1" parent="1" source="AvBMiMWbxeBO7aB9u8ek-18" target="AvBMiMWbxeBO7aB9u8ek-7">
          <mxGeometry width="50" height="50" relative="1" as="geometry">
            <mxPoint x="380" y="-1490" as="sourcePoint" />
            <mxPoint x="430" y="-1540" as="targetPoint" />
          </mxGeometry>
        </mxCell>
      </root>
    </mxGraphModel>
  </diagram>
</mxfile>
